<?xml version="1.0" encoding="UTF-8"?>
<svg id="Bouton_Header" data-name="Bouton Header" xmlns="http://www.w3.org/2000/svg" viewBox="0 0 128 128">
  <defs>
    <style>
      .cls-1 {
        fill: #fff;
      }

      .cls-2 {
        fill: #017a77;
      }
    </style>
  </defs>
  <g>
    <path class="cls-2" d="M38.04,88.04v-48.07h29.47c12.38,0,22.45,10.07,22.45,22.45v3.18c0,12.38-10.07,22.45-22.45,22.45h-29.47Z"/>
    <path class="cls-1" d="M67.51,40.96c11.84,0,21.45,9.6,21.45,21.45v3.18c0,11.84-9.6,21.45-21.45,21.45h-28.47v-46.07h28.47M67.51,38.96h-30.47v50.07h30.47c12.93,0,23.45-10.52,23.45-23.45v-3.18c0-12.93-10.52-23.45-23.45-23.45h0Z"/>
  </g>
  <polygon class="cls-1" points="50.89 50.86 51.02 77.14 73.71 63.88 50.89 50.86"/>
</svg>