<?xml version="1.0" encoding="UTF-8"?>
<svg id="Bouton_Header" data-name="Bouton Header" xmlns="http://www.w3.org/2000/svg" viewBox="0 0 128 128">
  <defs>
    <style>
      .cls-1 {
        fill: #fff;
      }

      .cls-2 {
        fill: #017a77;
      }
    </style>
  </defs>
  <g>
    <path class="cls-2" d="M60.49,88.04c-12.38,0-22.45-10.07-22.45-22.45v-3.18c0-12.38,10.07-22.45,22.45-22.45h29.47v48.07h-29.47Z"/>
    <path class="cls-1" d="M88.96,40.96v46.07h-28.47c-11.84,0-21.45-9.6-21.45-21.45v-3.18c0-11.84,9.6-21.45,21.45-21.45h28.47M90.96,38.96h-30.47c-12.93,0-23.45,10.52-23.45,23.45v3.18c0,12.93,10.52,23.45,23.45,23.45h30.47v-50.07h0Z"/>
  </g>
  <polygon class="cls-1" points="77.11 50.86 76.98 77.14 54.29 63.88 77.11 50.86"/>
</svg>