<?xml version="1.0" encoding="UTF-8"?>
<svg id="icone_météo" data-name="icone météo" xmlns="http://www.w3.org/2000/svg" viewBox="0 0 128 128">
  <defs>
    <style>
      .cls-1 {
        fill: #7290bc;
      }

      .cls-2 {
        fill: #bccde3;
      }

      .cls-3 {
        fill: #574e76;
      }

      .cls-4 {
        fill: #eb7523;
      }

      .cls-5 {
        fill: #f8c243;
      }
    </style>
  </defs>
  <rect class="cls-3" x="57.83" y="35.23" width="4.11" height="4.11"/>
  <rect class="cls-3" x="61.95" y="35.23" width="4.11" height="4.11"/>
  <rect class="cls-3" x="66.06" y="35.23" width="4.11" height="4.11"/>
  <rect class="cls-3" x="70.17" y="35.23" width="4.11" height="4.11"/>
  <rect class="cls-3" x="53.72" y="39.34" width="4.11" height="4.11"/>
  <rect class="cls-1" x="57.83" y="39.34" width="4.11" height="4.11"/>
  <rect class="cls-2" x="61.95" y="39.34" width="4.11" height="4.11"/>
  <rect class="cls-2" x="66.06" y="39.34" width="4.11" height="4.11"/>
  <rect class="cls-2" x="70.17" y="39.34" width="4.11" height="4.11"/>
  <rect class="cls-3" x="74.28" y="39.34" width="4.11" height="4.11"/>
  <rect class="cls-3" x="49.61" y="43.45" width="4.11" height="4.11"/>
  <rect class="cls-1" x="53.72" y="43.45" width="4.11" height="4.11"/>
  <rect class="cls-2" x="57.83" y="43.45" width="4.11" height="4.11"/>
  <rect class="cls-2" x="61.95" y="43.45" width="4.11" height="4.11"/>
  <rect class="cls-2" x="66.06" y="43.45" width="4.11" height="4.11"/>
  <rect class="cls-2" x="70.17" y="43.45" width="4.11" height="4.11"/>
  <rect class="cls-3" x="74.28" y="43.45" width="4.11" height="4.11"/>
  <rect class="cls-3" x="49.61" y="47.56" width="4.11" height="4.11"/>
  <rect class="cls-1" x="53.72" y="47.56" width="4.11" height="4.11"/>
  <rect class="cls-2" x="57.83" y="47.56" width="4.11" height="4.11"/>
  <rect class="cls-2" x="61.95" y="47.56" width="4.11" height="4.11"/>
  <rect class="cls-2" x="66.06" y="47.56" width="4.11" height="4.11"/>
  <rect class="cls-2" x="70.17" y="47.56" width="4.11" height="4.11"/>
  <rect class="cls-1" x="74.28" y="47.56" width="4.11" height="4.11"/>
  <rect class="cls-3" x="78.39" y="47.56" width="4.11" height="4.11"/>
  <rect class="cls-3" x="82.5" y="47.56" width="4.11" height="4.11"/>
  <rect class="cls-3" x="41.39" y="51.67" width="4.11" height="4.11"/>
  <rect class="cls-3" x="45.5" y="51.67" width="4.11" height="4.11"/>
  <rect class="cls-1" x="49.61" y="51.67" width="4.11" height="4.11"/>
  <rect class="cls-1" x="53.72" y="51.67" width="4.11" height="4.11"/>
  <rect class="cls-1" x="57.83" y="51.67" width="4.11" height="4.11"/>
  <rect class="cls-2" x="61.95" y="51.67" width="4.11" height="4.11"/>
  <rect class="cls-2" x="66.06" y="51.67" width="4.11" height="4.11"/>
  <rect class="cls-4" x="70.17" y="51.67" width="4.11" height="4.11"/>
  <rect class="cls-4" x="74.28" y="51.67" width="4.11" height="4.11"/>
  <rect class="cls-2" x="78.39" y="51.67" width="4.11" height="4.11"/>
  <rect class="cls-2" x="82.5" y="51.67" width="4.11" height="4.11"/>
  <rect class="cls-3" x="86.61" y="51.67" width="4.11" height="4.11"/>
  <rect class="cls-3" x="37.28" y="55.78" width="4.11" height="4.11"/>
  <rect class="cls-1" x="41.39" y="55.78" width="4.11" height="4.11"/>
  <rect class="cls-2" x="45.5" y="55.78" width="4.11" height="4.11"/>
  <rect class="cls-2" x="49.61" y="55.78" width="4.11" height="4.11"/>
  <rect class="cls-2" x="53.72" y="55.78" width="4.11" height="4.11"/>
  <rect class="cls-2" x="57.83" y="55.78" width="4.11" height="4.11"/>
  <rect class="cls-1" x="61.95" y="55.78" width="4.11" height="4.11"/>
  <rect class="cls-4" x="66.06" y="55.78" width="4.11" height="4.11"/>
  <rect class="cls-5" x="70.17" y="55.78" width="4.11" height="4.11"/>
  <rect class="cls-4" x="74.28" y="55.78" width="4.11" height="4.11"/>
  <rect class="cls-2" x="78.39" y="55.78" width="4.11" height="4.11"/>
  <rect class="cls-2" x="82.5" y="55.78" width="4.11" height="4.11"/>
  <rect class="cls-2" x="86.61" y="55.78" width="4.11" height="4.11"/>
  <rect class="cls-3" x="90.72" y="55.78" width="4.11" height="4.11"/>
  <rect class="cls-3" x="33.17" y="59.89" width="4.11" height="4.11"/>
  <rect class="cls-1" x="37.28" y="59.89" width="4.11" height="4.11"/>
  <rect class="cls-2" x="41.39" y="59.89" width="4.11" height="4.11"/>
  <rect class="cls-2" x="45.5" y="59.89" width="4.11" height="4.11"/>
  <rect class="cls-2" x="49.61" y="59.89" width="4.11" height="4.11"/>
  <rect class="cls-2" x="53.72" y="59.89" width="4.11" height="4.11"/>
  <rect class="cls-2" x="57.83" y="59.89" width="4.11" height="4.11"/>
  <rect class="cls-4" x="61.95" y="59.89" width="4.11" height="4.11"/>
  <rect class="cls-5" x="66.06" y="59.89" width="4.11" height="4.11"/>
  <rect class="cls-5" x="70.17" y="59.89" width="4.11" height="4.11"/>
  <rect class="cls-4" x="74.28" y="59.89" width="4.11" height="4.11"/>
  <rect class="cls-2" x="78.39" y="59.89" width="4.11" height="4.11"/>
  <rect class="cls-2" x="82.5" y="59.89" width="4.11" height="4.11"/>
  <rect class="cls-2" x="86.61" y="59.89" width="4.11" height="4.11"/>
  <rect class="cls-3" x="90.72" y="59.89" width="4.11" height="4.11"/>
  <rect class="cls-3" x="33.17" y="64" width="4.11" height="4.11"/>
  <rect class="cls-1" x="37.28" y="64" width="4.11" height="4.11"/>
  <rect class="cls-1" x="41.39" y="64" width="4.11" height="4.11"/>
  <rect class="cls-1" x="45.5" y="64" width="4.11" height="4.11"/>
  <rect class="cls-1" x="49.61" y="64" width="4.11" height="4.11"/>
  <rect class="cls-1" x="53.72" y="64" width="4.11" height="4.11"/>
  <rect class="cls-4" x="57.83" y="64" width="4.11" height="4.11"/>
  <rect class="cls-5" x="61.95" y="64" width="4.11" height="4.11"/>
  <rect class="cls-5" x="66.06" y="64" width="4.11" height="4.11"/>
  <rect class="cls-4" x="70.17" y="64" width="4.11" height="4.11"/>
  <rect class="cls-4" x="74.28" y="64" width="4.11" height="4.11"/>
  <rect class="cls-4" x="78.39" y="64" width="4.11" height="4.11"/>
  <rect class="cls-1" x="82.5" y="64" width="4.11" height="4.11"/>
  <rect class="cls-1" x="86.61" y="64" width="4.11" height="4.11"/>
  <rect class="cls-3" x="90.72" y="64" width="4.11" height="4.11"/>
  <rect class="cls-3" x="37.28" y="68.11" width="4.11" height="4.11"/>
  <rect class="cls-3" x="41.39" y="68.11" width="4.11" height="4.11"/>
  <rect class="cls-3" x="45.5" y="68.11" width="4.11" height="4.11"/>
  <rect class="cls-3" x="49.61" y="68.11" width="4.11" height="4.11"/>
  <rect class="cls-4" x="53.72" y="68.11" width="4.11" height="4.11"/>
  <rect class="cls-5" x="57.83" y="68.11" width="4.11" height="4.11"/>
  <rect class="cls-5" x="61.95" y="68.11" width="4.11" height="4.11"/>
  <rect class="cls-5" x="66.06" y="68.11" width="4.11" height="4.11"/>
  <rect class="cls-5" x="70.17" y="68.11" width="4.11" height="4.11"/>
  <rect class="cls-5" x="74.28" y="68.11" width="4.11" height="4.11"/>
  <rect class="cls-4" x="78.39" y="68.11" width="4.11" height="4.11"/>
  <rect class="cls-3" x="82.5" y="68.11" width="4.11" height="4.11"/>
  <rect class="cls-3" x="86.61" y="68.11" width="4.11" height="4.11"/>
  <rect class="cls-4" x="53.72" y="72.22" width="4.11" height="4.11"/>
  <rect class="cls-4" x="57.83" y="72.22" width="4.11" height="4.11"/>
  <rect class="cls-4" x="61.95" y="72.22" width="4.11" height="4.11"/>
  <rect class="cls-5" x="66.06" y="72.22" width="4.11" height="4.11"/>
  <rect class="cls-5" x="70.17" y="72.22" width="4.11" height="4.11"/>
  <rect class="cls-4" x="74.28" y="72.22" width="4.11" height="4.11"/>
  <rect class="cls-4" x="78.39" y="72.22" width="4.11" height="4.11"/>
  <rect class="cls-3" x="45.5" y="76.33" width="4.11" height="4.11"/>
  <rect class="cls-4" x="57.83" y="76.33" width="4.11" height="4.11"/>
  <rect class="cls-5" x="61.95" y="76.33" width="4.11" height="4.11"/>
  <rect class="cls-5" x="66.06" y="76.33" width="4.11" height="4.11"/>
  <rect class="cls-4" x="70.17" y="76.33" width="4.11" height="4.11"/>
  <rect class="cls-3" x="78.39" y="76.33" width="4.11" height="4.11"/>
  <rect class="cls-3" x="49.61" y="80.44" width="4.11" height="4.11"/>
  <rect class="cls-4" x="57.83" y="80.44" width="4.11" height="4.11"/>
  <rect class="cls-5" x="61.95" y="80.44" width="4.11" height="4.11"/>
  <rect class="cls-4" x="66.06" y="80.44" width="4.11" height="4.11"/>
  <rect class="cls-3" x="82.5" y="80.44" width="4.11" height="4.11"/>
  <rect class="cls-4" x="57.83" y="84.55" width="4.11" height="4.11"/>
  <rect class="cls-4" x="61.95" y="84.55" width="4.11" height="4.11"/>
  <rect class="cls-3" x="70.17" y="84.55" width="4.11" height="4.11"/>
  <rect class="cls-3" x="74.28" y="88.66" width="4.11" height="4.11"/>
</svg>