<?xml version="1.0" encoding="UTF-8"?>
<svg id="icone_météo" data-name="icone météo" xmlns="http://www.w3.org/2000/svg" viewBox="0 0 128 128">
  <defs>
    <style>
      .cls-1 {
        fill: #7290bc;
      }

      .cls-2 {
        fill: #bccde3;
      }

      .cls-3 {
        fill: #574e76;
      }
    </style>
  </defs>
  <rect class="cls-3" x="54.56" y="35.68" width="6.29" height="6.29"/>
  <rect class="cls-3" x="60.85" y="35.68" width="6.29" height="6.29"/>
  <rect class="cls-3" x="67.15" y="35.68" width="6.29" height="6.29"/>
  <rect class="cls-3" x="73.44" y="35.68" width="6.29" height="6.29"/>
  <rect class="cls-3" x="48.27" y="41.97" width="6.29" height="6.29"/>
  <rect class="cls-1" x="54.56" y="41.97" width="6.29" height="6.29"/>
  <rect class="cls-2" x="60.85" y="41.97" width="6.29" height="6.29"/>
  <rect class="cls-2" x="67.15" y="41.97" width="6.29" height="6.29"/>
  <rect class="cls-2" x="73.44" y="41.97" width="6.29" height="6.29"/>
  <rect class="cls-3" x="79.73" y="41.97" width="6.29" height="6.29"/>
  <rect class="cls-3" x="41.97" y="48.27" width="6.29" height="6.29"/>
  <rect class="cls-1" x="48.27" y="48.27" width="6.29" height="6.29"/>
  <rect class="cls-2" x="54.56" y="48.27" width="6.29" height="6.29"/>
  <rect class="cls-2" x="60.85" y="48.27" width="6.29" height="6.29"/>
  <rect class="cls-2" x="67.15" y="48.27" width="6.29" height="6.29"/>
  <rect class="cls-2" x="73.44" y="48.27" width="6.29" height="6.29"/>
  <rect class="cls-3" x="79.73" y="48.27" width="6.29" height="6.29"/>
  <rect class="cls-3" x="41.97" y="54.56" width="6.29" height="6.29"/>
  <rect class="cls-1" x="48.27" y="54.56" width="6.29" height="6.29"/>
  <rect class="cls-2" x="54.56" y="54.56" width="6.29" height="6.29"/>
  <rect class="cls-2" x="60.85" y="54.56" width="6.29" height="6.29"/>
  <rect class="cls-2" x="67.15" y="54.56" width="6.29" height="6.29"/>
  <rect class="cls-2" x="73.44" y="54.56" width="6.29" height="6.29"/>
  <rect class="cls-1" x="79.73" y="54.56" width="6.29" height="6.29"/>
  <rect class="cls-3" x="86.03" y="54.56" width="6.29" height="6.29"/>
  <rect class="cls-3" x="92.32" y="54.56" width="6.29" height="6.29"/>
  <rect class="cls-3" x="29.39" y="60.85" width="6.29" height="6.29"/>
  <rect class="cls-3" x="35.68" y="60.85" width="6.29" height="6.29"/>
  <rect class="cls-1" x="41.97" y="60.85" width="6.29" height="6.29"/>
  <rect class="cls-1" x="48.27" y="60.85" width="6.29" height="6.29"/>
  <rect class="cls-1" x="54.56" y="60.85" width="6.29" height="6.29"/>
  <rect class="cls-2" x="60.85" y="60.85" width="6.29" height="6.29"/>
  <rect class="cls-2" x="67.15" y="60.85" width="6.29" height="6.29"/>
  <rect class="cls-1" x="73.44" y="60.85" width="6.29" height="6.29"/>
  <rect class="cls-2" x="79.73" y="60.85" width="6.29" height="6.29"/>
  <rect class="cls-2" x="86.03" y="60.85" width="6.29" height="6.29"/>
  <rect class="cls-2" x="92.32" y="60.85" width="6.29" height="6.29"/>
  <rect class="cls-3" x="98.61" y="60.85" width="6.29" height="6.29"/>
  <rect class="cls-3" x="23.09" y="67.15" width="6.29" height="6.29"/>
  <rect class="cls-1" x="29.39" y="67.15" width="6.29" height="6.29"/>
  <rect class="cls-2" x="35.68" y="67.15" width="6.29" height="6.29"/>
  <rect class="cls-2" x="41.97" y="67.15" width="6.29" height="6.29"/>
  <rect class="cls-2" x="48.27" y="67.15" width="6.29" height="6.29"/>
  <rect class="cls-2" x="54.56" y="67.15" width="6.29" height="6.29"/>
  <rect class="cls-1" x="60.85" y="67.15" width="6.29" height="6.29"/>
  <rect class="cls-1" x="67.15" y="67.15" width="6.29" height="6.29"/>
  <rect class="cls-1" x="73.44" y="67.15" width="6.29" height="6.29"/>
  <rect class="cls-2" x="79.73" y="67.15" width="6.29" height="6.29"/>
  <rect class="cls-2" x="86.03" y="67.15" width="6.29" height="6.29"/>
  <rect class="cls-2" x="92.32" y="67.15" width="6.29" height="6.29"/>
  <rect class="cls-2" x="98.61" y="67.15" width="6.29" height="6.29"/>
  <rect class="cls-3" x="104.91" y="67.15" width="6.29" height="6.29"/>
  <rect class="cls-3" x="16.8" y="73.44" width="6.29" height="6.29"/>
  <rect class="cls-1" x="23.09" y="73.44" width="6.29" height="6.29"/>
  <rect class="cls-2" x="29.39" y="73.44" width="6.29" height="6.29"/>
  <rect class="cls-2" x="35.68" y="73.44" width="6.29" height="6.29"/>
  <rect class="cls-2" x="41.97" y="73.44" width="6.29" height="6.29"/>
  <rect class="cls-2" x="48.27" y="73.44" width="6.29" height="6.29"/>
  <rect class="cls-2" x="54.56" y="73.44" width="6.29" height="6.29"/>
  <rect class="cls-2" x="60.85" y="73.44" width="6.29" height="6.29"/>
  <rect class="cls-1" x="67.15" y="73.44" width="6.29" height="6.29"/>
  <rect class="cls-1" x="73.44" y="73.44" width="6.29" height="6.29"/>
  <rect class="cls-1" x="79.73" y="73.44" width="6.29" height="6.29"/>
  <rect class="cls-2" x="86.03" y="73.44" width="6.29" height="6.29"/>
  <rect class="cls-2" x="92.32" y="73.44" width="6.29" height="6.29"/>
  <rect class="cls-2" x="98.61" y="73.44" width="6.29" height="6.29"/>
  <rect class="cls-3" x="104.91" y="73.44" width="6.29" height="6.29"/>
  <rect class="cls-3" x="16.8" y="79.73" width="6.29" height="6.29"/>
  <rect class="cls-1" x="23.09" y="79.73" width="6.29" height="6.29"/>
  <rect class="cls-1" x="29.39" y="79.73" width="6.29" height="6.29"/>
  <rect class="cls-1" x="35.68" y="79.73" width="6.29" height="6.29"/>
  <rect class="cls-1" x="41.97" y="79.73" width="6.29" height="6.29"/>
  <rect class="cls-1" x="48.27" y="79.73" width="6.29" height="6.29"/>
  <rect class="cls-1" x="54.56" y="79.73" width="6.29" height="6.29"/>
  <rect class="cls-1" x="60.85" y="79.73" width="6.29" height="6.29"/>
  <rect class="cls-1" x="67.15" y="79.73" width="6.29" height="6.29"/>
  <rect class="cls-1" x="73.44" y="79.73" width="6.29" height="6.29"/>
  <rect class="cls-1" x="79.73" y="79.73" width="6.29" height="6.29"/>
  <rect class="cls-1" x="86.03" y="79.73" width="6.29" height="6.29"/>
  <rect class="cls-1" x="92.32" y="79.73" width="6.29" height="6.29"/>
  <rect class="cls-1" x="98.61" y="79.73" width="6.29" height="6.29"/>
  <rect class="cls-3" x="104.91" y="79.73" width="6.29" height="6.29"/>
  <rect class="cls-3" x="23.09" y="86.03" width="6.29" height="6.29"/>
  <rect class="cls-3" x="29.39" y="86.03" width="6.29" height="6.29"/>
  <rect class="cls-3" x="35.68" y="86.03" width="6.29" height="6.29"/>
  <rect class="cls-3" x="41.97" y="86.03" width="6.29" height="6.29"/>
  <rect class="cls-3" x="48.27" y="86.03" width="6.29" height="6.29"/>
  <rect class="cls-3" x="54.56" y="86.03" width="6.29" height="6.29"/>
  <rect class="cls-3" x="60.85" y="86.03" width="6.29" height="6.29"/>
  <rect class="cls-3" x="67.15" y="86.03" width="6.29" height="6.29"/>
  <rect class="cls-3" x="73.44" y="86.03" width="6.29" height="6.29"/>
  <rect class="cls-3" x="79.73" y="86.03" width="6.29" height="6.29"/>
  <rect class="cls-3" x="86.03" y="86.03" width="6.29" height="6.29"/>
  <rect class="cls-3" x="92.32" y="86.03" width="6.29" height="6.29"/>
  <rect class="cls-3" x="98.61" y="86.03" width="6.29" height="6.29"/>
</svg>