<?xml version="1.0" encoding="UTF-8"?>
<svg id="Calque_1" data-name="Calque 1" xmlns="http://www.w3.org/2000/svg" viewBox="0 0 128 128">
  <defs>
    <style>
      .cls-1 {
        fill: #c2eeff;
      }

      .cls-2 {
        fill: #fff;
      }

      .cls-3 {
        fill: #192149;
      }

      .cls-4 {
        fill: #e20000;
      }

      .cls-5 {
        fill: #ff4a12;
      }

      .cls-6 {
        fill: #53afd3;
      }
    </style>
  </defs>
  <path class="cls-6" d="M70.1,39.6h4.07v-8.13h-4.07v8.13ZM70.1,11.13v4.07h4.07v-4.07h-4.07ZM70.1,27.4h4.07v-8.13h-4.07v8.13Z"/>
  <path class="cls-1" d="M53.83,43.67h4.07V11.13h-4.07v32.53ZM70.1,15.2V7.07h-12.2v4.07h4.07v32.53h4.07v-4.07h4.07v-8.13h-4.07v-4.07h4.07v-8.13h-4.07v-4.07h4.07Z"/>
  <polygon class="cls-2" points="57.9 112.8 57.9 108.73 53.83 108.73 53.83 92.47 57.9 92.47 57.9 88.4 61.97 88.4 61.97 11.13 57.9 11.13 57.9 84.33 53.83 84.33 53.83 88.4 49.77 88.4 49.77 92.47 45.7 92.47 45.7 108.73 49.77 108.73 49.77 112.8 53.83 112.8 53.83 116.87 70.1 116.87 70.1 112.8 57.9 112.8"/>
  <path class="cls-5" d="M74.17,96.53v-8.13h-4.07v-8.13h-4.07v-4.07h4.07v-8.13h-4.07v-4.07h4.07v-8.13h-8.13v32.53h-4.07v4.07h-4.07v16.27h4.07v4.07h16.27v-4.07h4.07v-12.2h-4.07ZM70.1,47.73h-8.13v4.07h8.13v-4.07Z"/>
  <path class="cls-4" d="M82.3,92.47v-4.07h-4.07v-4.07h-4.07v-4.07h-4.07v8.13h4.07v8.13h4.07v12.2h-4.07v4.07h-4.07v4.07h-16.27v4.07h20.33v-4.07h8.13v-4.07h4.07v-20.33h-4.07ZM49.77,112.8v-4.07h-4.07v-16.27h-4.07v20.33h4.07v4.07h8.13v-4.07h-4.07ZM49.77,88.4h-4.07v4.07h4.07v-4.07ZM53.83,84.33h-4.07v4.07h4.07v-4.07ZM57.9,43.67h-4.07v40.67h4.07v-40.67ZM70.1,51.8h4.07v-8.13h-12.2v4.07h8.13v4.07ZM66.03,51.8h-4.07v4.07h4.07v-4.07ZM74.17,55.87h-4.07v8.13h4.07v-8.13ZM70.1,76.2h4.07v-8.13h-4.07v8.13Z"/>
  <path class="cls-3" d="M41.63,112.8v4.07h4.07v-4.07h-4.07ZM82.3,116.87h4.07v-4.07h-4.07v4.07ZM37.57,92.47v20.33h4.07v-20.33h-4.07ZM45.7,88.4h-4.07v4.07h4.07v-4.07ZM49.77,84.33h-4.07v4.07h4.07v-4.07ZM53.83,11.13h-4.07v73.2h4.07V11.13ZM57.9,7.07h-4.07v4.07h4.07v-4.07ZM74.17,11.13v-4.07h-4.07v4.07h4.07ZM70.1,3h-12.2v4.07h12.2V3ZM66.03,15.2v4.07h8.13v8.13h-8.13v4.07h8.13v8.13h-8.13v4.07h8.13v8.13h-8.13v4.07h8.13v8.13h-8.13v4.07h8.13v8.13h-8.13v4.07h8.13v4.07h4.07V11.13h-4.07v4.07h-8.13ZM86.37,92.47v-4.07h-4.07v4.07h4.07ZM82.3,88.4v-4.07h-4.07v4.07h4.07ZM86.37,92.47v20.33h4.07v-20.33h-4.07ZM45.7,116.87v4.07h8.13v-4.07h-8.13ZM74.17,120.93h8.13v-4.07h-8.13v4.07ZM53.83,125h20.33v-4.07h-20.33v4.07Z"/>
</svg>